<?xml version="1.0" encoding="UTF-8" standalone="no"?>
<svg
   xmlns:dc="http://purl.org/dc/elements/1.1/"
   xmlns:cc="http://creativecommons.org/ns#"
   xmlns:rdf="http://www.w3.org/1999/02/22-rdf-syntax-ns#"
   xmlns:svg="http://www.w3.org/2000/svg"
   xmlns="http://www.w3.org/2000/svg"
   xmlns:sodipodi="http://sodipodi.sourceforge.net/DTD/sodipodi-0.dtd"
   xmlns:inkscape="http://www.inkscape.org/namespaces/inkscape"
   viewBox="0 0 362.79999 512"
   version="1.1"
   id="svg14"
   sodipodi:docname="html.svg"
   width="362.79999"
   height="512"
   inkscape:version="0.92.5 (2060ec1f9f, 2020-04-08)">
  <metadata
     id="metadata20">
    <rdf:RDF>
      <cc:Work
         rdf:about="">
        <dc:format>image/svg+xml</dc:format>
        <dc:type
           rdf:resource="http://purl.org/dc/dcmitype/StillImage" />
        <dc:title>HTML5 Logo</dc:title>
      </cc:Work>
    </rdf:RDF>
  </metadata>
  <defs
     id="defs18" />
  <sodipodi:namedview
     pagecolor="#ffffff"
     bordercolor="#666666"
     borderopacity="1"
     objecttolerance="10"
     gridtolerance="10"
     guidetolerance="10"
     inkscape:pageopacity="0"
     inkscape:pageshadow="2"
     inkscape:window-width="1366"
     inkscape:window-height="703"
     id="namedview16"
     showgrid="false"
     inkscape:zoom="0.70710678"
     inkscape:cx="51.940774"
     inkscape:cy="196.5164"
     inkscape:window-x="0"
     inkscape:window-y="0"
     inkscape:window-maximized="1"
     inkscape:current-layer="svg14" />
  <title
     id="title2">HTML5 Logo</title>
  <path
     d="m 33.803577,0 h 23 v 22.8 h 21.2 V 0 H 101.00357 V 69 H 78.003577 V 46 h -21 v 23 h -23.2 M 131.40357,23 h -20.3 V 0 h 63.7 v 23 h -20.4 v 46 h -23 m 53.5,-69 h 24.1 l 14.8,24.3 14.8,-24.3 h 24.1 v 69 h -23 V 34.8 l -16.1,24.8 -16.1,-24.8 V 69 h -22.59999 m 89.2,-69 h 23 v 46.2 h 32.6 V 69 h -55.6"
     id="path4"
     inkscape:connector-curvature="0" />
  <path
     d="M 33.003577,471 0.00357684,100.6 H 362.80358 l -33,370.2 -148.7,41.2"
     id="path6"
     inkscape:connector-curvature="0"
     style="fill:#e44d26" />
  <path
     d="M 181.40357,480.5 V 131 h 148.3 l -28.3,316"
     id="path8"
     inkscape:connector-curvature="0"
     style="fill:#f16529" />
  <path
     d="M 67.403577,176.3 H 181.40357 v 45.4 h -64.2 l 4.2,46.5 h 60 v 45.3 H 79.803577 m 2,22.8 h 45.600003 l 3.19999,36.3 50.8,13.6 v 47.4 l -93.199993,-26"
     id="path10"
     inkscape:connector-curvature="0"
     style="fill:#ebebeb" />
  <path
     d="m 295.00357,176.3 h -113.8 v 45.4 h 109.60001 m -4.10001,46.5 h -105.5 v 45.4 h 56 l -5.3,59 -50.7,13.6 v 47.2 l 93,-25.8"
     id="path12"
     inkscape:connector-curvature="0"
     style="fill:#ffffff" />
</svg>
