<?xml version="1.0" encoding="UTF-8" standalone="no"?>
<!-- Generator: Adobe Illustrator 21.0.0, SVG Export Plug-In . SVG Version: 6.00 Build 0)  -->

<svg
   xmlns:dc="http://purl.org/dc/elements/1.1/"
   xmlns:cc="http://creativecommons.org/ns#"
   xmlns:rdf="http://www.w3.org/1999/02/22-rdf-syntax-ns#"
   xmlns:svg="http://www.w3.org/2000/svg"
   xmlns="http://www.w3.org/2000/svg"
   xmlns:sodipodi="http://sodipodi.sourceforge.net/DTD/sodipodi-0.dtd"
   xmlns:inkscape="http://www.inkscape.org/namespaces/inkscape"
   version="1.1"
   id="Layer_1"
   x="0px"
   y="0px"
   viewBox="0 0 250 187.576"
   xml:space="preserve"
   sodipodi:docname="gmail-logo.svg"
   width="250"
   height="187.576"
   inkscape:version="0.92.5 (2060ec1f9f, 2020-04-08)"><metadata
   id="metadata41"><rdf:RDF><cc:Work
       rdf:about=""><dc:format>image/svg+xml</dc:format><dc:type
         rdf:resource="http://purl.org/dc/dcmitype/StillImage" /><dc:title></dc:title></cc:Work></rdf:RDF></metadata><defs
   id="defs39" /><sodipodi:namedview
   pagecolor="#ffffff"
   bordercolor="#666666"
   borderopacity="1"
   objecttolerance="10"
   gridtolerance="10"
   guidetolerance="10"
   inkscape:pageopacity="0"
   inkscape:pageshadow="2"
   inkscape:window-width="1366"
   inkscape:window-height="703"
   id="namedview37"
   showgrid="false"
   inkscape:zoom="1.4142136"
   inkscape:cx="151.07222"
   inkscape:cy="27.48868"
   inkscape:window-x="0"
   inkscape:window-y="0"
   inkscape:window-maximized="1"
   inkscape:current-layer="Layer_1" />
<style
   type="text/css"
   id="style2">
	.st0{fill:#B7B7B8;}
	.st1{fill:#51B848;}
	.st2{fill:#848484;}
	.st3{fill:#557EBF;}
	.st4{fill:#36A852;}
	.st5{fill:#F9BC15;}
	.st6{fill:#EA4535;}
	.st7{fill:#C52627;}
</style>

<g
   id="g34"
   transform="matrix(1.6361257,0,0,1.6361257,-293.84593,-325.02382)">
	<g
   id="g32">
		<path
   class="st3"
   d="m 190,313.3 h 24.3 v -59 l -34.7,-26 V 303 c 0,5.7 4.7,10.3 10.4,10.3 z"
   id="path22"
   inkscape:connector-curvature="0"
   style="fill:#557ebf" />
		<path
   class="st4"
   d="M 297.7,313.3 H 322 c 5.8,0 10.4,-4.7 10.4,-10.4 v -74.7 l -34.7,26 z"
   id="path24"
   inkscape:connector-curvature="0"
   style="fill:#36a852" />
		<path
   class="st5"
   d="m 297.7,209.1 v 45.1 l 34.7,-26 v -13.9 c 0,-12.9 -14.7,-20.2 -25,-12.5 z"
   id="path26"
   inkscape:connector-curvature="0"
   style="fill:#f9bc15" />
		<path
   class="st6"
   d="m 214.3,254.3 v -45.1 l 41.7,31.3 41.7,-31.3 v 45.1 L 256,285.5 Z"
   id="path28"
   inkscape:connector-curvature="0"
   style="fill:#ea4535" />
		<path
   class="st7"
   d="m 179.6,214.3 v 13.9 l 34.7,26 v -45.1 l -9.7,-7.3 c -10.3,-7.7 -25,-0.3 -25,12.5 z"
   id="path30"
   inkscape:connector-curvature="0"
   style="fill:#c52627" />
	</g>
</g>
</svg>